PathFileType	4	(x/y/z)	S02_BK_Cal_T01
DataRate	CameraRate	NumFrames	NumMarkers	Units	OrigDataRate	OrigDataStartFrame	OrigNumFrames
240	240	11	51	mm	240	1801	2400
Frame#	Time	Sternum			R.Acromium			L.Acromium			Top.Head			R.ASIS			L.ASIS			R.PSIS			L.PSIS			R.Great.Tro			L.Great.Tro			R.Iliac.Crest			L.Iliac.Crest			V.Sacral			R.Thigh.Upper.Post			R.Thigh.Lower.Ant			R.Thigh.Lower.Post			R.Thigh.Upper.Ant			R.Knee.Lat			R.Knee.Med			R.Shank.Upper.Post			R.Shank.Lower.Ant			R.Shank.Lower.Post			R.Shank.Upper.Ant			R.Ankle.Lat			R.Ankle.Med			R.Heel.Upper			R.Heel.Med			R.Heel.Lat			R.Toe.Lat			R.Toe.Med			R.Toe.Tip			L.Thigh.Upper.Post			L.Thigh.Lower.Ant			L.Thigh.Lower.Post			L.Thigh.Upper.Ant			L.Knee.Lat			L.Knee.Med			L.Shank.Upper.Post			L.Shank.Lower.Ant			L.Shank.Lower.Post			L.Shank.Upper.Ant			L.Ankle.Lat			L.Ankle.Med			L.Heel.Upper			L.Heel.Med			L.Heel.Lat			L.Toe.Lat			L.Toe.Med			L.Toe.Tip			Cervical.Spine			Back			
		X1	Y1	Z1	X2	Y2	Z2	X3	Y3	Z3	X4	Y4	Z4	X5	Y5	Z5	X6	Y6	Z6	X7	Y7	Z7	X8	Y8	Z8	X9	Y9	Z9	X10	Y10	Z10	X11	Y11	Z11	X12	Y12	Z12	X13	Y13	Z13	X14	Y14	Z14	X15	Y15	Z15	X16	Y16	Z16	X17	Y17	Z17	X18	Y18	Z18	X19	Y19	Z19	X20	Y20	Z20	X21	Y21	Z21	X22	Y22	Z22	X23	Y23	Z23	X24	Y24	Z24	X25	Y25	Z25	X26	Y26	Z26	X27	Y27	Z27	X28	Y28	Z28	X29	Y29	Z29	X30	Y30	Z30	X31	Y31	Z31	X32	Y32	Z32	X33	Y33	Z33	X34	Y34	Z34	X35	Y35	Z35	X36	Y36	Z36	X37	Y37	Z37	X38	Y38	Z38	X39	Y39	Z39	X40	Y40	Z40	X41	Y41	Z41	X42	Y42	Z42	X43	Y43	Z43	X44	Y44	Z44	X45	Y45	Z45	X46	Y46	Z46	X47	Y47	Z47	X48	Y48	Z48	X49	Y49	Z49	X50	Y50	Z50	X51	Y51	Z51	

1801	7.5	629.76	1066.7	319.74	529.53	1308.2	463.76	521	1305.6	168.22	575.53	1596.8	313.68	589.6	883.36	422.17	585.95	876.43	207.79	368.93	917.56	370.55	362.93	919.45	295.52	519.57	780.21	517.5	461.66	793.33	123.82	491.29	935.8	480.76	465.6	933.19	149.49	342.75	869.26	328.14	584.01	588.43	512.38	659.62	526.2	482.89	593.38	499.17	497.54	646.14	614.19	494.3	628.56	428.12	486.83	625.59	405.79	347.55	494.91	257.19	478.17	537.42	156.2	469	477.33	186.38	474.42	558.13	222.4	483.02	458.64	90.684	466.75	474.06	96.893	382.4	399.82	73.804	406.36	416.86	40.797	381.45	398.39	42.957	443.02	552.75	41.329	508.22	600.23	34.707	405.83	639.39	63.461	468.22	512.73	567.49	126.85	610.42	517.64	113.7	544.36	482.42	139.7	570.84	604.35	103.86	617.57	434.98	116.28	632.2	420.98	252.14	498.13	292.57	114.73	541.93	189.47	114.09	477.9	221.39	124.53	556.7	264.29	106	465.29	103.24	123.52	485.48	92.75	205.37	406.44	67.475	162.67	420.37	40.817	193.96	408.13	40.309	133.56	567.74	36.942	79.317	604.79	45.632	184.43	657.38	62.979	129.94	450.83	1368.3	316.9	374.24	1120.4	329.52
1802	7.5042	629.79	1066.6	319.75	529.56	1308.2	463.76	521.03	1305.6	168.22	575.59	1596.8	313.69	589.6	883.35	422.18	585.95	876.43	207.79	368.93	917.56	370.55	362.93	919.46	295.52	519.55	780.21	517.5	461.66	793.33	123.82	491.29	935.8	480.77	465.6	933.19	149.49	342.75	869.26	328.13	584	588.43	512.38	659.62	526.2	482.9	593.37	499.17	497.54	646.13	614.19	494.31	628.55	428.12	486.84	625.59	405.79	347.55	494.92	257.19	478.17	537.42	156.2	469	477.33	186.38	474.43	558.13	222.4	483.02	458.64	90.686	466.75	474.06	96.89	382.4	399.82	73.805	406.36	416.86	40.797	381.45	398.39	42.957	443.02	552.75	41.328	508.22	600.23	34.707	405.83	639.39	63.46	468.22	512.72	567.49	126.85	610.41	517.64	113.7	544.35	482.42	139.7	570.83	604.35	103.86	617.56	434.98	116.28	632.19	420.98	252.14	498.13	292.57	114.73	541.93	189.47	114.09	477.9	221.39	124.53	556.69	264.3	105.99	465.29	103.24	123.52	485.48	92.75	205.37	406.44	67.475	162.67	420.37	40.818	193.96	408.13	40.309	133.56	567.74	36.941	79.318	604.79	45.631	184.43	657.38	62.979	129.94	450.87	1368.4	316.9	374.26	1120.5	329.52
1803	7.5083	629.81	1066.6	319.76	529.6	1308.2	463.76	521.07	1305.6	168.23	575.66	1596.8	313.71	589.6	883.34	422.18	585.95	876.43	207.79	368.93	917.57	370.55	362.93	919.47	295.52	519.54	780.2	517.5	461.65	793.34	123.82	491.29	935.8	480.77	465.6	933.19	149.49	342.75	869.27	328.13	583.99	588.42	512.38	659.61	526.2	482.91	593.37	499.16	497.54	646.12	614.18	494.32	628.55	428.12	486.84	625.6	405.79	347.56	494.92	257.19	478.17	537.42	156.2	469	477.34	186.39	474.43	558.13	222.4	483.02	458.64	90.687	466.75	474.06	96.887	382.4	399.82	73.806	406.36	416.87	40.798	381.45	398.39	42.957	443.02	552.75	41.328	508.22	600.23	34.707	405.83	639.39	63.459	468.22	512.72	567.5	126.85	610.41	517.64	113.7	544.35	482.42	139.71	570.83	604.35	103.86	617.56	434.98	116.28	632.19	420.99	252.14	498.12	292.57	114.73	541.93	189.48	114.09	477.9	221.39	124.53	556.69	264.3	105.99	465.29	103.24	123.52	485.48	92.75	205.37	406.44	67.475	162.67	420.37	40.819	193.96	408.13	40.309	133.56	567.74	36.941	79.318	604.79	45.631	184.43	657.38	62.978	129.94	450.91	1368.4	316.9	374.28	1120.5	329.52
1804	7.5125	629.83	1066.6	319.77	529.63	1308.2	463.76	521.1	1305.6	168.23	575.73	1596.7	313.73	589.59	883.33	422.18	585.95	876.43	207.79	368.93	917.57	370.55	362.93	919.47	295.52	519.53	780.2	517.51	461.65	793.34	123.82	491.29	935.79	480.77	465.6	933.19	149.48	342.75	869.28	328.13	583.97	588.42	512.38	659.6	526.19	482.92	593.36	499.16	497.54	646.12	614.18	494.33	628.55	428.12	486.85	625.61	405.78	347.57	494.92	257.19	478.17	537.42	156.2	469	477.34	186.39	474.43	558.13	222.4	483.02	458.64	90.689	466.75	474.06	96.883	382.4	399.82	73.806	406.36	416.87	40.798	381.45	398.39	42.957	443.02	552.75	41.328	508.22	600.23	34.707	405.83	639.4	63.458	468.22	512.71	567.5	126.85	610.4	517.64	113.7	544.34	482.42	139.71	570.82	604.35	103.85	617.55	434.98	116.28	632.19	420.99	252.14	498.12	292.57	114.73	541.93	189.48	114.09	477.9	221.39	124.53	556.68	264.31	105.99	465.29	103.24	123.52	485.48	92.75	205.37	406.44	67.475	162.67	420.37	40.819	193.96	408.13	40.309	133.56	567.74	36.94	79.318	604.79	45.63	184.43	657.38	62.978	129.95	450.96	1368.4	316.9	374.3	1120.5	329.53
1805	7.5167	629.86	1066.6	319.77	529.67	1308.2	463.76	521.14	1305.6	168.24	575.79	1596.7	313.74	589.59	883.32	422.19	585.95	876.42	207.79	368.93	917.58	370.55	362.94	919.48	295.51	519.52	780.19	517.51	461.65	793.35	123.82	491.28	935.79	480.77	465.61	933.2	149.48	342.75	869.29	328.13	583.96	588.41	512.39	659.59	526.19	482.93	593.35	499.15	497.54	646.11	614.18	494.34	628.54	428.12	486.85	625.61	405.78	347.57	494.92	257.19	478.17	537.42	156.2	469	477.33	186.39	474.43	558.13	222.39	483.02	458.63	90.69	466.75	474.06	96.879	382.4	399.82	73.805	406.36	416.87	40.798	381.45	398.39	42.957	443.02	552.75	41.327	508.22	600.23	34.707	405.83	639.4	63.458	468.22	512.7	567.5	126.86	610.4	517.64	113.7	544.33	482.43	139.71	570.81	604.35	103.85	617.54	434.98	116.28	632.18	421	252.14	498.11	292.57	114.73	541.92	189.48	114.09	477.89	221.39	124.53	556.68	264.31	105.99	465.29	103.24	123.53	485.48	92.75	205.37	406.44	67.476	162.67	420.37	40.82	193.96	408.13	40.309	133.56	567.74	36.94	79.317	604.79	45.63	184.43	657.38	62.978	129.95	451	1368.4	316.91	374.32	1120.5	329.53
1806	7.5208	629.88	1066.6	319.78	529.71	1308.2	463.76	521.17	1305.6	168.24	575.86	1596.7	313.76	589.58	883.3	422.19	585.95	876.42	207.8	368.93	917.58	370.55	362.94	919.49	295.51	519.5	780.19	517.51	461.65	793.35	123.82	491.28	935.79	480.78	465.61	933.2	149.48	342.74	869.3	328.12	583.95	588.41	512.39	659.59	526.19	482.94	593.34	499.15	497.54	646.1	614.18	494.36	628.54	428.12	486.86	625.62	405.78	347.58	494.92	257.19	478.17	537.42	156.2	469	477.33	186.38	474.43	558.13	222.39	483.02	458.63	90.692	466.75	474.06	96.874	382.39	399.82	73.804	406.36	416.87	40.797	381.45	398.39	42.957	443.02	552.75	41.327	508.22	600.23	34.707	405.83	639.4	63.457	468.22	512.7	567.5	126.86	610.39	517.64	113.7	544.33	482.43	139.71	570.81	604.35	103.85	617.54	434.99	116.28	632.17	421	252.14	498.11	292.57	114.74	541.92	189.48	114.09	477.89	221.39	124.53	556.67	264.32	105.99	465.29	103.24	123.53	485.48	92.75	205.37	406.44	67.476	162.67	420.37	40.821	193.96	408.13	40.309	133.56	567.74	36.94	79.317	604.79	45.63	184.43	657.38	62.978	129.95	451.04	1368.4	316.91	374.34	1120.5	329.53
1807	7.525	629.9	1066.6	319.78	529.74	1308.2	463.76	521.21	1305.6	168.24	575.93	1596.7	313.78	589.58	883.29	422.2	585.96	876.42	207.8	368.93	917.59	370.55	362.94	919.5	295.51	519.49	780.18	517.51	461.65	793.36	123.82	491.28	935.78	480.78	465.62	933.2	149.48	342.74	869.31	328.12	583.94	588.41	512.39	659.58	526.19	482.95	593.34	499.15	497.54	646.09	614.17	494.37	628.53	428.12	486.86	625.62	405.78	347.58	494.92	257.19	478.17	537.42	156.2	469.01	477.32	186.37	474.41	558.13	222.39	483.02	458.63	90.694	466.75	474.06	96.869	382.39	399.83	73.802	406.36	416.87	40.797	381.46	398.39	42.957	443.02	552.75	41.326	508.22	600.23	34.707	405.83	639.4	63.457	468.22	512.69	567.5	126.86	610.38	517.64	113.71	544.32	482.43	139.72	570.8	604.35	103.85	617.53	434.99	116.29	632.16	421.01	252.14	498.11	292.57	114.74	541.92	189.48	114.09	477.89	221.39	124.53	556.66	264.32	105.99	465.29	103.24	123.53	485.48	92.75	205.37	406.44	67.476	162.67	420.36	40.822	193.96	408.13	40.309	133.56	567.74	36.94	79.317	604.79	45.629	184.43	657.38	62.979	129.95	451.08	1368.4	316.91	374.36	1120.5	329.53
1808	7.5292	629.91	1066.6	319.78	529.78	1308.2	463.76	521.24	1305.6	168.25	575.99	1596.7	313.8	589.57	883.28	422.2	585.96	876.42	207.8	368.93	917.59	370.55	362.94	919.51	295.51	519.47	780.18	517.52	461.66	793.36	123.82	491.27	935.78	480.78	465.63	933.2	149.48	342.74	869.32	328.11	583.92	588.4	512.39	659.57	526.18	482.96	593.33	499.14	497.55	646.08	614.17	494.38	628.53	428.12	486.87	625.63	405.78	347.59	494.92	257.19	478.17	537.42	156.2	469.01	477.32	186.35	474.4	558.13	222.39	483.02	458.63	90.696	466.75	474.05	96.865	382.39	399.83	73.8	406.36	416.87	40.796	381.46	398.39	42.957	443.02	552.75	41.326	508.22	600.23	34.707	405.83	639.39	63.458	468.22	512.69	567.5	126.86	610.38	517.64	113.71	544.31	482.43	139.72	570.8	604.35	103.85	617.52	434.99	116.29	632.15	421.02	252.15	498.1	292.58	114.74	541.91	189.48	114.09	477.88	221.39	124.53	556.66	264.32	105.99	465.29	103.24	123.53	485.48	92.75	205.37	406.44	67.476	162.67	420.36	40.824	193.96	408.13	40.309	133.56	567.74	36.94	79.316	604.79	45.629	184.43	657.38	62.979	129.95	451.11	1368.4	316.92	374.38	1120.5	329.53
1809	7.5333	629.93	1066.6	319.78	529.81	1308.2	463.76	521.28	1305.6	168.25	576.05	1596.7	313.81	589.57	883.28	422.21	585.96	876.41	207.81	368.93	917.6	370.55	362.95	919.52	295.5	519.46	780.17	517.52	461.66	793.37	123.81	491.27	935.78	480.78	465.63	933.21	149.48	342.74	869.34	328.11	583.91	588.4	512.4	659.56	526.18	482.97	593.32	499.14	497.55	646.07	614.17	494.39	628.52	428.11	486.87	625.64	405.78	347.59	494.92	257.19	478.17	537.41	156.2	469.01	477.31	186.33	474.38	558.13	222.39	483.03	458.63	90.698	466.75	474.05	96.86	382.39	399.83	73.797	406.36	416.87	40.795	381.46	398.39	42.957	443.02	552.75	41.326	508.22	600.23	34.708	405.83	639.39	63.458	468.22	512.68	567.5	126.86	610.37	517.64	113.71	544.31	482.43	139.72	570.79	604.35	103.85	617.51	434.99	116.29	632.14	421.02	252.15	498.1	292.58	114.74	541.91	189.48	114.09	477.88	221.39	124.53	556.65	264.33	105.99	465.29	103.24	123.53	485.48	92.75	205.37	406.44	67.477	162.67	420.36	40.825	193.96	408.13	40.309	133.56	567.74	36.94	79.316	604.79	45.629	184.43	657.38	62.98	129.95	451.15	1368.4	316.92	374.4	1120.5	329.54
1810	7.5375	629.94	1066.5	319.78	529.85	1308.2	463.76	521.32	1305.6	168.26	576.12	1596.7	313.83	589.56	883.27	422.21	585.96	876.41	207.81	368.93	917.6	370.54	362.95	919.53	295.5	519.44	780.17	517.52	461.66	793.37	123.81	491.26	935.78	480.79	465.64	933.22	149.48	342.73	869.35	328.1	583.9	588.4	512.4	659.55	526.18	482.98	593.31	499.14	497.55	646.06	614.16	494.4	628.51	428.11	486.87	625.64	405.78	347.6	494.92	257.18	478.17	537.41	156.21	469.01	477.3	186.31	474.36	558.12	222.39	483.03	458.63	90.699	466.75	474.05	96.856	382.39	399.84	73.794	406.36	416.87	40.794	381.46	398.39	42.957	443.02	552.75	41.326	508.22	600.23	34.709	405.83	639.39	63.459	468.22	512.68	567.5	126.86	610.37	517.64	113.71	544.3	482.44	139.73	570.79	604.35	103.85	617.51	434.99	116.29	632.13	421.03	252.15	498.09	292.58	114.74	541.91	189.48	114.09	477.87	221.39	124.53	556.65	264.33	105.99	465.29	103.23	123.53	485.48	92.75	205.37	406.44	67.477	162.67	420.36	40.826	193.96	408.13	40.309	133.56	567.74	36.94	79.315	604.79	45.629	184.43	657.37	62.981	129.95	451.19	1368.4	316.93	374.42	1120.5	329.54
1811	7.5417	629.95	1066.5	319.78	529.88	1308.2	463.76	521.35	1305.6	168.26	576.18	1596.7	313.85	589.56	883.26	422.22	585.96	876.41	207.81	368.93	917.61	370.54	362.95	919.53	295.5	519.42	780.16	517.52	461.66	793.38	123.81	491.26	935.77	480.79	465.65	933.22	149.48	342.73	869.36	328.1	583.89	588.39	512.4	659.54	526.18	482.98	593.3	499.14	497.55	646.05	614.16	494.4	628.51	428.11	486.88	625.65	405.78	347.6	494.91	257.18	478.17	537.41	156.21	469.01	477.29	186.29	474.34	558.12	222.39	483.03	458.63	90.701	466.75	474.05	96.853	382.39	399.84	73.791	406.36	416.88	40.793	381.46	398.39	42.957	443.01	552.74	41.326	508.22	600.23	34.709	405.83	639.39	63.46	468.22	512.67	567.5	126.86	610.36	517.64	113.71	544.29	482.44	139.73	570.78	604.35	103.85	617.5	434.99	116.29	632.11	421.03	252.15	498.09	292.58	114.74	541.9	189.49	114.09	477.87	221.39	124.53	556.64	264.34	105.99	465.29	103.23	123.53	485.48	92.75	205.37	406.44	67.476	162.67	420.36	40.826	193.96	408.13	40.309	133.56	567.74	36.941	79.315	604.79	45.629	184.43	657.37	62.982	129.95	451.23	1368.4	316.93	374.44	1120.5	329.54
